{"title":"Dolphin Tale 2 2014 HC HDRIP XVID AC3 ACAB","uid":11113457,"size":1501577112,"categoryP":"video","categoryS":"movies","magnet":"?xt=urn:btih:fced2e4ed88fcc7d1c00786afbc4756c33f5f58f&amp;dn=Dolphin+Tale+2+2014+HC+HDRIP+XVID+AC3+ACAB&amp;tr=udp%3A%2F%2Ftracker.openbittorrent.com%3A80&amp;tr=udp%3A%2F%2Fopen.demonii.com%3A1337&amp;tr=udp%3A%2F%2Ftracker.coppersurfer.tk%3A6969&amp;tr=udp%3A%2F%2Fexodus.desync.com%3A6969","seeders":0,"leechers":0,"uploader":"xxxlavalxxx","files":-1,"time":1411834120,"description":"[IMG]http://i.imgur.com/HiaHR6p.jpg[/IMG]\n &lt;a href=&quot;\nhttp://www.imdb.com/title/tt2978462/&quot; rel=&quot;nofollow&quot; target=&quot;_NEW&quot;&gt;\nhttp://www.imdb.com/title/tt2978462/&lt;/a&gt;\n\n\nThe team of people who saved Winter's life reassemble in the wake of her surrogate mother's passing in order to find her a companion so she can remain at the Clearwater Marine Hospital.\n\nDirector: Charles Martin Smith\nWriters: Charles Martin Smith, Karen Janszen (characters)\nStars: Morgan Freeman, Ashley Judd, Nathan Gamble \nGenres: Drama, Family\nCountry: USA\nLanguage: English\n\n\nNotes:\nHas Hardcoded Chinese Subs\n\nFormat                                   : AVI\nFormat/Info                              : Audio Video Interleave\nFile size                                : 1.38 GiB\nDuration                                 : 1h 47mn\nOverall bit rate                         : 1 842 Kbps\nWriting library                          : VirtualDub build 30091/release\n\nVideo\nID                                       : 0\nFormat                                   : MPEG-4 Visual\nFormat profile                           : Advanced Simple@L5\nFormat settings, BVOP                    : 2\nFormat settings, QPel                    : No\nFormat settings, GMC                     : No warppoints\nFormat settings, Matrix                  : Default (H.263)\nMuxing mode                              : Packed bitstream\nCodec ID                                 : XVID\nCodec ID/Hint                            : XviD\nDuration                                 : 1h 47mn\nBit rate                                 : 1 449 Kbps\nWidth                                    : 720 pixels\nHeight                                   : 400 pixels\nDisplay aspect ratio                     : 16:9\nFrame rate                               : 24.000 fps\nColor space                              : YUV\nChroma subsampling                       : 4:2:0\nBit depth                                : 8 bits\nScan type                                : Progressive\nCompression mode                         : Lossy\nBits/(Pixel*Frame)                       : 0.210\nStream size                              : 1.08 GiB (79%)\nWriting library                          : XviD 65\n\nAudio\nID                                       : 1\nFormat                                   : AC-3\nFormat/Info                              : Audio Coding 3\nMode extension                           : CM (complete main)\nFormat settings, Endianness              : Big\nCodec ID                                 : 2000\nDuration                                 : 1h 47mn\nBit rate mode                            : Constant\nBit rate                                 : 384 Kbps\nChannel count                            : 2 channels\nChannel positions                        : Front: L R\nSampling rate                            : 48.0 KHz\nBit depth                                : 16 bits\nCompression mode                         : Lossy\nStream size                              : 294 MiB (21%)\nAlignment                                : Aligned on interleaves\nInterleave, duration                     : 42 ms (1.00 video frame)\nInterleave, preload duration             : 512 ms\n\n\n\nscreens\n &lt;a href=&quot;\nhttp://i.imgur.com/lXq4L41.png&quot; rel=&quot;nofollow&quot; target=&quot;_NEW&quot;&gt;\nhttp://i.imgur.com/lXq4L41.png&lt;/a&gt; &lt;a href=&quot;\nhttp://i.imgur.com/GwFOFgH.png&quot; rel=&quot;nofollow&quot; target=&quot;_NEW&quot;&gt;\nhttp://i.imgur.com/GwFOFgH.png&lt;/a&gt; &lt;a href=&quot;\nhttp://i.imgur.com/DHh87k5.png&quot; rel=&quot;nofollow&quot; target=&quot;_NEW&quot;&gt;\nhttp://i.imgur.com/DHh87k5.png&lt;/a&gt; &lt;a href=&quot;\nhttp://i.imgur.com/3aU7yKU.png&quot; rel=&quot;nofollow&quot; target=&quot;_NEW&quot;&gt;\nhttp://i.imgur.com/3aU7yKU.png&lt;/a&gt;","torrent":{"xt":"urn:btih:fced2e4ed88fcc7d1c00786afbc4756c33f5f58f","amp;dn":"Dolphin+Tale+2+2014+HC+HDRIP+XVID+AC3+ACAB","amp;tr":["udp%3A%2F%2Ftracker.openbittorrent.com%3A80","udp%3A%2F%2Fopen.demonii.com%3A1337","udp%3A%2F%2Ftracker.coppersurfer.tk%3A6969","udp%3A%2F%2Fexodus.desync.com%3A6969"],"infoHash":"fced2e4ed88fcc7d1c00786afbc4756c33f5f58f","infoHashBuffer":{"type":"Buffer","data":[252,237,46,78,216,143,204,125,28,0,120,106,251,196,117,108,51,245,245,143]},"announce":[],"urlList":[]}}